<svg xmlns="http://www.w3.org/2000/svg" viewBox="0 0 2026 2026">
  <style>
    path { fill: #1d1d1f; }
    @media (prefers-color-scheme: dark) { path { fill: #f5f5f7; } }
  </style>
  <path transform="translate(309.0 1758.2) scale(1 -1)" d="M149.76123046875 0V1490H720.239501953125Q881.279296875 1490 987.9990844726562 1439.1998901367188Q1094.7188720703125 1388.3997802734375 1147.6387329101562 1301.0596923828125Q1200.55859375 1213.7196044921875 1200.55859375 1103.2796630859375Q1200.55859375 1012.3194580078125 1165.838623046875 947.8395385742188Q1131.11865234375 883.359619140625 1072.3787841796875 843.2997436523438Q1013.638916015625 803.2398681640625 940.71923828125 785.599853515625V770.8798828125Q1020.078857421875 767.2398681640625 1092.8187255859375 723.0598754882812Q1165.55859375 678.8798828125 1212.05859375 598.7798461914062Q1258.55859375 518.6798095703125 1258.55859375 405.9996337890625Q1258.55859375 290.3997802734375 1202.9187622070312 198.41986083984375Q1147.2789306640625 106.43994140625 1034.759033203125 53.219970703125Q922.2391357421875 0 751.2789306640625 0ZM416.798095703125 223.437744140625H709.200439453125Q856.9215087890625 223.437744140625 922.5018310546875 280.358154296875Q988.0821533203125 337.278564453125 988.0821533203125 425.9989013671875Q988.0821533203125 493.0792236328125 955.1219482421875 546.5396118164062Q922.1617431640625 600 861.661376953125 631.1602783203125Q801.1610107421875 662.320556640625 717.760498046875 662.320556640625H416.798095703125ZM416.798095703125 854.71923828125H686.48046875Q756.7608642578125 854.71923828125 812.9412231445312 880.8194580078125Q869.12158203125 906.919677734375 901.7218017578125 955.06005859375Q934.322021484375 1003.200439453125 934.322021484375 1069.0408935546875Q934.322021484375 1155.601318359375 873.3017578125 1211.8017578125Q812.281494140625 1268.002197265625 692.48046875 1268.002197265625H416.798095703125Z"/>
</svg>
